<?xml version="1.0" standalone="no"?>
<!DOCTYPE svg PUBLIC "-//W3C//DTD SVG 1.1//EN" "http://www.w3.org/Graphics/SVG/1.1/DTD/svg11.dtd" >
<svg xmlns="http://www.w3.org/2000/svg">
<metadata>
This is a custom SVG webfont generated by Font Squirrel.
Copyright   : Copyright 19992008 Ben Weiner Licensed under the Open Font License httpscriptssilorgOFL See accompanying license and FONTLOG
</metadata>
<defs>
<font id="webfontuCYqM11k" horiz-adv-x="1679" >
<font-face units-per-em="2048" ascent="1638" descent="-410" />
<missing-glyph horiz-adv-x="409" />
<glyph unicode=" "  horiz-adv-x="409" />
<glyph unicode="&#x09;" horiz-adv-x="409" />
<glyph unicode="&#xa0;" horiz-adv-x="409" />
<glyph unicode="!" horiz-adv-x="745" d="M123 1303h530l-55 -846h-420zM133 178q0 92 79 156.5t185.5 64.5t186.5 -65.5t80 -155.5q0 -92 -80 -151.5t-186.5 -59.5t-185.5 59.5t-79 151.5z" />
<glyph unicode="&#x22;" horiz-adv-x="847" d="M113 1448h288l-30 -438h-230zM481 1448h289l-31 -438h-229z" />
<glyph unicode="#" horiz-adv-x="1175" d="M154 752v155l145 31v203l-145 -31v156l145 30v148l217 45v-146l143 29v148l218 45v-146l145 31v-156l-145 -30v-203l145 31v-156l-145 -31v-147l-218 -45v145l-143 -29v-147l-217 -45v145zM516 985l143 29v203l-143 -29v-203z" />
<glyph unicode="$" horiz-adv-x="1601" d="M41 -16v520h283v-74q0 -72 84 -123t227 -76v246q-557 86 -557 420q0 102 50 183t135 129t176 77t196 41v217h332v-223q168 -35 297 -123v102h282v-501h-282v75q0 125 -297 179v-226q106 -12 184 -28.5t160 -50t133 -80.5t84 -124t33 -177q0 -174 -149.5 -283t-444.5 -131 v-182h-332v186q-190 18 -311 84v-57h-283zM498 942q0 -33 33.5 -48t103.5 -26v193q-70 -10 -103.5 -37t-33.5 -82zM967 229q170 33 170 107q0 55 -41 77.5t-129 32.5v-217z" />
<glyph unicode="%" horiz-adv-x="2457" d="M82 864q0 168 139 276.5t319.5 108.5t315.5 -109.5t135 -275.5q0 -176 -133 -277.5t-317.5 -101.5t-321.5 105.5t-137 273.5zM377 870q0 -84 44 -145t122 -61q90 0 135 59t45 137q0 223 -180 223q-78 0 -122 -63.5t-44 -149.5zM492 -156l1036 1465h430l-1036 -1465h-430z M1468 303q0 168 139.5 276.5t319.5 108.5t315.5 -109.5t135.5 -275.5q0 -176 -133.5 -277.5t-317.5 -101.5t-321.5 105.5t-137.5 273.5zM1763 309q0 -84 44 -145.5t122 -61.5q90 0 135 59.5t45 137.5q0 223 -180 223q-78 0 -122 -63.5t-44 -149.5z" />
<glyph unicode="&#x26;" horiz-adv-x="1845" d="M88 342q0 127 78 225.5t194 153.5q-90 98 -90 235q0 172 126 265.5t358 93.5q104 0 185 -29t128 -70.5t78 -94t41 -94.5t10 -77q0 -180 -248 -288l303 -244q39 37 56 96h-131v236h538v-236h-147q-14 -164 -135 -281h323v-235h-469l-119 84q-106 -66 -197 -97.5 t-225 -31.5q-657 0 -657 389zM479 342q0 -51 64.5 -97t210.5 -46q96 0 180 47l-344 289q-59 -31 -85 -74t-26 -119zM616 975q0 -25 5.5 -42.5t20.5 -34.5t22.5 -24.5t34.5 -25.5l34 -23q43 12 81 39t54.5 48.5t16.5 29.5q-4 61 -37 96t-119 35q-113 0 -113 -98z" />
<glyph unicode="'" horiz-adv-x="585" d="M150 1448h288l-30 -438h-230z" />
<glyph unicode="(" horiz-adv-x="1052" d="M55 608q0 166 54.5 303.5t143.5 228.5t208 153.5t246 90t258 27.5h24v-293q-152 0 -256 -39t-160.5 -112.5t-80 -160.5t-23.5 -200q0 -152 27.5 -251t93 -158.5t160 -84t237.5 -24.5h10v-293h-16q-176 0 -312.5 22.5t-255 78t-195.5 146.5t-120 233.5t-43 332.5z" />
<glyph unicode=")" horiz-adv-x="1052" d="M55 88h19q143 0 236 24.5t156.5 84t90.5 159t27 250.5q0 113 -23.5 200t-80 160.5t-161 112.5t-256.5 39v293h25q131 0 257 -27.5t245 -90t208 -152.5t143 -226.5t54 -300.5q0 -193 -44 -336t-120.5 -234t-195.5 -147.5t-256 -79t-313 -22.5h-11v293z" />
<glyph unicode="*" horiz-adv-x="958" d="M78 1145l205 69l-205 68l135 172l170 -106l-33 153h266l-38 -151l165 104l138 -172l-205 -68l205 -69l-138 -172l-170 106l33 -153h-266l39 151l-166 -104z" />
<glyph unicode="+" horiz-adv-x="1245" d="M102 539v223h381v297h283v-297h377v-223h-377v-299h-283v299h-381z" />
<glyph unicode="," horiz-adv-x="841" d="M121 160q0 94 85 160.5t202 66.5t215 -65.5t98 -159.5q0 -119 -62 -203q-43 -61 -103 -103t-183 -106l-150 137l131 62q-100 14 -166.5 71.5t-66.5 139.5z" />
<glyph unicode="-" horiz-adv-x="1226" d="M340 567v166h549v-166h-549z" />
<glyph unicode="." horiz-adv-x="821" d="M123 172q0 90 85 152.5t202 62.5q119 0 203.5 -62.5t84.5 -152.5q0 -88 -86 -145.5t-202.5 -57.5t-201.5 57.5t-85 145.5z" />
<glyph unicode="/" horiz-adv-x="1048" d="M37 -205l547 1616h428l-547 -1616h-428z" />
<glyph unicode="0" d="M33 629q0 197 119.5 354.5t305 239.5t392.5 82q205 0 386 -83t297 -241t116 -352q0 -158 -68 -287t-181.5 -210t-254.5 -124t-295 -43q-203 0 -386 74t-307 229.5t-124 360.5zM512 606q0 -152 94 -267.5t243.5 -115.5t233.5 114t84 267q0 88 -14 163t-47 145.5 t-98.5 111.5t-157.5 41q-119 0 -199 -72.5t-109.5 -171t-29.5 -215.5z" />
<glyph unicode="1" horiz-adv-x="1474" d="M303 831v230q123 10 174 55t62 152h417v-1012h218v-256h-859v256h220v575h-232z" />
<glyph unicode="2" d="M61 0v215q0 68 35 129.5t96.5 108.5t130 86t154.5 69.5t152.5 50t138.5 35.5q190 45 244.5 77t54.5 114q0 29 -2 45t-16.5 41.5t-41 39t-80 25t-128.5 11.5q-119 0 -181.5 -48.5t-62.5 -164.5h-459q0 102 48.5 185t123 135t173 87t190.5 49.5t180 14.5q170 0 299 -21.5 t231.5 -70t155.5 -133.5t53 -208q0 -78 -21.5 -137t-56 -101t-100 -80t-129 -62.5t-168.5 -59.5q-68 -23 -203 -54.5t-219 -59t-110 -64.5h792v240h283v-494h-1557z" />
<glyph unicode="3" horiz-adv-x="1677" d="M66 430h462q0 -96 86 -157.5t222 -61.5q297 0 297 182q0 43 -26 69.5t-83 37t-112.5 13.5t-151.5 3h-55v291q70 0 106.5 1t89.5 4t81 10t55.5 19.5t40 33t12.5 47.5q0 23 -2.5 37t-16.5 35.5t-39.5 34.5t-77 23.5t-123.5 10.5q-121 0 -186 -50t-65 -149h-449 q0 123 64.5 213t169 137.5t214 69t222.5 21.5q729 0 729 -394q0 -143 -141 -209q223 -104 223 -317q0 -432 -805 -432q-96 0 -192.5 13.5t-198 48t-177 87t-124.5 137.5t-49 191z" />
<glyph unicode="4" d="M31 541l882 727h394v-686h342v-254h-342v-72h219v-256h-858v256h217v72h-705zM621 582h264v221z" />
<glyph unicode="5" d="M61 410h461q0 -57 32 -100.5t81 -63t93 -27.5t83 -8q180 0 251 57.5t71 124.5q0 61 -7.5 96t-37 76t-100 60.5t-183.5 19.5q-188 0 -324 -149h-338v772h1454v-400h-284v101h-846v-164q162 102 381 102q98 0 196.5 -13t204 -49t185 -89.5t132 -142.5t52.5 -199 q0 -121 -66.5 -212t-182.5 -144.5t-259 -79t-311 -25.5q-92 0 -184.5 11t-195 42t-179 79t-128 132t-51.5 193z" />
<glyph unicode="6" d="M111 598q0 156 50 281t130 203.5t188.5 131t216 73t219.5 20.5q88 0 189.5 -21.5t202 -63.5t167 -119t66.5 -173h-448q0 70 -71 107.5t-167 37.5q-203 0 -262 -157q-29 -74 -29 -173q180 127 410 127q156 0 292 -57t220 -164.5t84 -240.5q0 -457 -719 -457 q-313 0 -526 184.5t-213 460.5zM598 414q0 -31 12.5 -65t40 -70.5t86 -60t137.5 -23.5q72 0 124.5 22.5t77 59t34.5 69.5t10 66q0 213 -254 213q-137 0 -202.5 -59.5t-65.5 -151.5z" />
<glyph unicode="7" d="M37 776v492h1605v-273l-126 -97l-143 -108q-54 -42 -123.5 -105.5t-116.5 -119.5q-86 -102 -127 -231t-41 -334h-559q0 203 48 343t133 236.5t251 227.5l215 168h-734v-199h-282z" />
<glyph unicode="8" horiz-adv-x="1681" d="M82 385q0 215 227 320q-145 74 -145 227q0 111 51 187.5t148.5 118.5t214 59.5t272.5 17.5q154 0 269.5 -17.5t208.5 -59.5t141.5 -119t48.5 -187q0 -154 -146 -227q227 -104 227 -320q0 -432 -759 -432q-758 0 -758 432zM537 375q0 -205 288 -205q98 0 166 22.5 t98.5 58.5t42 65.5t11.5 58.5q0 92 -72 150.5t-231 58.5q-158 0 -230.5 -58.5t-72.5 -150.5zM580 930q0 -174 272 -174q145 0 197.5 45t52.5 129q0 27 -10.5 55.5t-36 63t-85 56t-145.5 21.5q-84 0 -138 -20.5t-74.5 -56t-26.5 -61t-6 -58.5z" />
<glyph unicode="9" d="M109 334h462q8 -63 49.5 -96t151.5 -33q90 0 156.5 28.5t104.5 78.5t57.5 103.5t25.5 114.5q-172 -106 -399 -106q-156 0 -293 51t-224 154.5t-87 236.5q0 215 202.5 327t515.5 112q299 0 519.5 -181.5t220.5 -443.5q0 -195 -64.5 -340t-176 -228t-246 -122t-291.5 -39 q-63 0 -136 6t-175.5 30.5t-181.5 63.5t-135 113t-56 170zM561 864q0 -193 256 -192q139 0 202.5 53t63.5 139q0 70 -61 134.5t-215 64.5q-76 0 -128 -20.5t-75.5 -54.5t-33 -63.5t-9.5 -60.5z" />
<glyph unicode=":" horiz-adv-x="821" d="M123 194.5q0 98.5 85 168t204 69.5q117 0 201.5 -69.5t84.5 -168t-85 -162t-201.5 -63.5t-202.5 63.5t-86 162zM123 784.5q0 98.5 85 168t204 69.5q117 0 201.5 -69.5t84.5 -168t-85 -162t-201.5 -63.5t-202.5 63.5t-86 162z" />
<glyph unicode=";" horiz-adv-x="845" d="M123 186q0 98 86 169t203 71t214 -69.5t97 -170.5q0 -70 -12.5 -119t-49 -102t-106.5 -103t-180 -112l-148 146l129 65q-98 14 -165.5 75.5t-67.5 149.5zM123 782q0 98 86 169t202.5 71t201.5 -70.5t85 -169.5q0 -100 -85 -164.5t-201.5 -64.5t-202.5 64.5t-86 164.5z " />
<glyph unicode="&#x3c;" horiz-adv-x="1130" d="M61 553l764 596l244 -188l-526 -410l526 -410l-244 -186z" />
<glyph unicode="=" horiz-adv-x="1236" d="M184 158v217h869v-217h-869zM184 516v217h869v-217h-869z" />
<glyph unicode="&#x3e;" horiz-adv-x="1130" d="M61 141l527 410l-527 410l244 188l764 -600l-764 -594z" />
<glyph unicode="?" horiz-adv-x="1556" d="M92 834q0 102 46 185t118 134t165 87t183 50.5t178 14.5q350 0 517 -87.5t167 -299.5q0 -61 -22.5 -111.5t-55 -81.5t-83 -57.5t-88.5 -39.5l-92 -31q-52 -17 -74 -26q-49 -23 -71 -52.5t-22 -94.5h-473q0 195 82 266q57 51 148.5 90t148.5 47q51 8 83 20.5t45.5 29 t16.5 27.5t3 30q0 23 -5.5 38t-25.5 34.5t-73.5 30t-137.5 10.5q-106 0 -162.5 -50.5t-56.5 -162.5h-459zM485 178q0 92 79 156.5t185.5 64.5t184.5 -64.5t78 -156.5t-78 -151.5t-184.5 -59.5t-185.5 59.5t-79 151.5z" />
<glyph unicode="@" horiz-adv-x="1843" d="M41 614q0 272 270.5 482.5t655.5 210.5q395 0 615 -173t220 -464q0 -119 -107.5 -225.5t-253 -164t-274.5 -57.5q-106 0 -184 115q-92 -51 -188 -51q-119 0 -200 73.5t-81 190.5q0 178 127 287.5t307 109.5q41 0 68.5 -8t66.5 -35v39l183 -24l-109 -426q0 -55 28.5 -84 t76.5 -29q84 0 162.5 81t78.5 204q0 109 -45 192.5t-121.5 130.5t-169 70.5t-198.5 23.5q-123 0 -226.5 -24.5t-187.5 -75.5t-132 -143t-48 -215q0 -131 33.5 -225.5t84 -145.5t131.5 -81t152.5 -37t169.5 -7h38h40q229 0 360 72q20 -25 71.5 -76t76.5 -82 q-117 -88 -220.5 -108.5t-340.5 -22.5h-51q-403 0 -641 188t-238 514zM758 551q0 -86 84 -86q51 0 80 18q12 8 35.5 33t37.5 35l52 213q-51 27 -82 27h-12h-13q-84 0 -133 -78t-49 -162z" />
<glyph unicode="A" horiz-adv-x="2021" d="M41 0v254h258l635 1008l266 69l619 -1077h161v-254h-759v254h98l-45 88h-545l-51 -88h123v-254h-760zM868 575h285l-131 256z" />
<glyph unicode="B" horiz-adv-x="1884" d="M82 0v254h213v778h-213v236h987q109 0 187.5 -6.5t163.5 -27t138.5 -56t87 -99t33.5 -151.5q0 -117 -96 -201q219 -86 219 -334q0 -86 -30.5 -152.5t-90 -108.5t-128 -69.5t-165 -41t-177.5 -17.5t-187 -4h-942zM719 254h313q190 0 250.5 29.5t60.5 109.5q0 102 -63 130 t-272 28h-289v-297zM719 784h469q57 18 57 111q0 88 -47 112.5t-143 24.5h-336v-248z" />
<glyph unicode="C" horiz-adv-x="1933" d="M41 641q0 215 138 368.5t364.5 225.5t519.5 72q145 0 289.5 -44t242.5 -104v111h285v-608h-285v73q0 127 -157.5 217t-372.5 90q-244 0 -384 -99t-140 -302q0 -207 147.5 -312.5t374.5 -105.5q416 0 532 283h297q0 -84 -42 -171t-132 -170t-259 -135.5t-394 -52.5 q-1024 0 -1024 664z" />
<glyph unicode="D" horiz-adv-x="1957" d="M82 2v254h213v776h-213v236h917q264 0 456 -62.5t306.5 -205t114.5 -355.5q0 -322 -226.5 -482.5t-625.5 -160.5h-942zM719 256h313q221 0 303 90t82 299q0 203 -92 295t-317 92h-289v-776z" />
<glyph unicode="E" horiz-adv-x="1763" d="M82 0v254h213v778h-213v236h1599v-492h-282v256h-680v-264h467v-236h-467v-278h680v240h282v-494h-1599z" />
<glyph unicode="F" horiz-adv-x="1763" d="M82 0v254h213v778h-213v236h1599v-492h-282v256h-680v-264h467v-236h-467v-278h221v-254h-858z" />
<glyph unicode="G" horiz-adv-x="1953" d="M41 641q0 215 139 368.5t367.5 225.5t519.5 72q147 0 302 -44t251 -104v111h285v-608h-285v73q0 127 -157.5 217t-372.5 90q-248 0 -398.5 -101t-150.5 -300q0 -205 157.5 -311.5t388.5 -106.5q328 0 400 156h-262v235h688v-608h-240l-74 100q-195 -129 -530 -129 q-1028 0 -1028 664z" />
<glyph unicode="H" horiz-adv-x="2152" d="M82 0v254h213v778h-213v236h858v-236h-221v-264h706v264h-213v236h859v-236h-222v-778h222v-254h-859v254h213v278h-706v-278h221v-254h-858z" />
<glyph unicode="I" horiz-adv-x="1021" d="M82 0v254h213v778h-213v236h858v-236h-221v-778h221v-254h-858z" />
<glyph unicode="J" horiz-adv-x="1392" d="M66 463h374v-141q0 -119 103 -119q72 0 95.5 25.5t23.5 99.5v704h-263v236h908v-236h-222v-686q0 -193 -152.5 -290t-365.5 -97q-227 0 -363 127t-138 377z" />
<glyph unicode="K" horiz-adv-x="1873" d="M82 0v254h213v778h-213v236h809v-236h-172v-336l379 344v228h637v-236h-234l-407 -362l491 -416h248v-254h-530l-476 434l-108 -96v-84h172v-254h-809z" />
<glyph unicode="L" horiz-adv-x="1763" d="M82 0v254h213v778h-213v236h858v-236h-221v-778h680v240h282v-494h-1599z" />
<glyph unicode="M" horiz-adv-x="2535" d="M82 0v254h213v778h-213v236h573l602 -707l598 694h599v-223h-213v-778h213v-254h-859v254h222v414l-549 -666h-88l-559 668v-416h294v-254h-833z" />
<glyph unicode="N" horiz-adv-x="2054" d="M82 0v254h213v778h-213v236h620l723 -666v430h-213v236h760v-236h-221v-1032h-268l-862 774v-520h221v-254h-760z" />
<glyph unicode="O" horiz-adv-x="2127" d="M41 641q0 215 138 368.5t364.5 225.5t519.5 72t520 -72t365.5 -225.5t138.5 -368.5q0 -664 -1022 -664q-1024 0 -1024 664zM541 641q0 -207 147.5 -312.5t374.5 -105.5q248 0 387 103.5t139 314.5q0 193 -143 297t-381 104q-244 0 -384 -99t-140 -302z" />
<glyph unicode="P" horiz-adv-x="1761" d="M82 1032v236h987q109 0 187.5 -6.5t163.5 -27t138.5 -56t87 -99t33.5 -151.5q0 -100 -46 -173t-116.5 -113t-180 -63.5t-208 -30.5t-227.5 -7h-182v-287h229v-254h-858v254h205v778h-213zM719 756h190q152 0 221.5 13t92 40t22.5 86q0 88 -47 112.5t-143 24.5h-336v-276z " />
<glyph unicode="Q" horiz-adv-x="2205" d="M41 637q0 217 138 370.5t364.5 226.5t519.5 73t520 -73t365.5 -226.5t138.5 -370.5q0 -307 -209 -473l287 -199l-377 -227l-318 260q-172 -33 -405 -33q-1024 0 -1024 672zM541 637q0 -211 147.5 -317.5t374.5 -106.5q66 0 133 10l-184 150l260 211l258 -178 q59 96 59 231q0 195 -143 299t-381 104q-244 0 -384 -100t-140 -303z" />
<glyph unicode="R" horiz-adv-x="1890" d="M82 1032v236h987q109 0 187.5 -6.5t163.5 -27t138.5 -56t87 -99t33.5 -151.5q0 -295 -393 -365l297 -309h225v-254h-532l-457 541h-100v-287h229v-254h-858v254h205v778h-213zM719 756h190q152 0 221.5 13t92 40t22.5 86q0 47 -13 74.5t-44 41t-56.5 16.5t-76.5 5 q-12 0 -36 1t-38 1q-43 0 -131 -1t-131 -1v-276z" />
<glyph unicode="S" horiz-adv-x="1683" d="M82 -8v514h283v-74q0 -61 49 -104t130 -65.5t165 -32t174 -9.5q111 0 203 30t92 89q0 27 -9.5 45t-33 29.5t-49 18.5t-71.5 12.5t-88 8.5t-109.5 9t-125.5 14q-82 10 -157.5 30.5t-181 64.5t-170 127t-64.5 194q0 100 44 178t111.5 125t159.5 78t179 42t178 11 q137 0 286.5 -41t227.5 -96v100h282v-493h-282v73q0 90 -148.5 140.5t-316.5 50.5q-174 0 -237.5 -24.5t-63.5 -100.5q0 -16 11 -28.5t36.5 -20.5t46 -13.5t61.5 -11.5q57 -10 154.5 -20.5l174.5 -19.5t169 -26.5t159.5 -48t128 -77.5t91.5 -124t31 -177 q0 -195 -188.5 -304.5t-565.5 -109.5q-305 0 -483 92v-55h-283z" />
<glyph unicode="T" horiz-adv-x="1970" d="M82 776v492h1806v-492h-282v256h-410v-778h270v-254h-956v254h264v778h-409v-256h-283z" />
<glyph unicode="U" horiz-adv-x="2054" d="M82 1032v236h858v-236h-221v-581q0 -117 82 -170.5t264 -53.5h69q24 0 64.5 3t62 9.5l52 16.5t47 26.5t34 40t24.5 56.5t7 74v579h-213v236h760v-236h-221v-631q0 -61 -20.5 -119.5t-70.5 -118t-127 -104.5t-201 -72.5t-277 -27.5q-190 0 -342 42t-240 108.5t-133 142.5 t-45 149v631h-213z" />
<glyph unicode="V" horiz-adv-x="1980" d="M20 1030v236h760v-236h-96l342 -594l317 594h-143v236h760v-236h-244l-604 -1032h-264l-664 1032h-164z" />
<glyph unicode="W" horiz-adv-x="2938" d="M20 1030v236h760v-236h-100l324 -594l262 465l-76 129h-162v236h883v-236h-221l295 -588l294 588h-145v236h784v-236h-268l-577 -1032h-269l-374 631l-340 -631h-269l-639 1032h-162z" />
<glyph unicode="X" horiz-adv-x="2004" d="M20 0v236h252l455 382l-502 412h-170v236h736v-236h-56l293 -239l285 239h-103v236h736v-236h-254l-449 -366l569 -428h173v-236h-809v236h55l-299 243l-262 -243h110v-236h-760z" />
<glyph unicode="Y" horiz-adv-x="1980" d="M20 1030v236h760v-236h-69l315 -313l295 313h-121v236h760v-236h-250l-512 -549v-227h221v-254h-858v254h213v205l-586 571h-168z" />
<glyph unicode="Z" horiz-adv-x="1886" d="M82 0v233l1065 799h-727v-256h-283v492h1600v-213l-998 -801h783v240h282v-494h-1722z" />
<glyph unicode="[" horiz-adv-x="1140" d="M113 -207v1680h915v-238h-491v-1182h491v-260h-915z" />
<glyph unicode="\" horiz-adv-x="1095" d="M39 1411h395l621 -1616h-393z" />
<glyph unicode="]" horiz-adv-x="1140" d="M113 53h491v1182h-491v238h915v-1680h-915v260z" />
<glyph unicode="^" horiz-adv-x="2054" d="M565 1532l367 143l375 -143l-47 -156l-328 127l-320 -127z" />
<glyph unicode="_" horiz-adv-x="1245" d="M164 -45h917v-166h-917v166z" />
<glyph unicode="`" horiz-adv-x="471" d="M49 1477l23 198l366 -143l-47 -156z" />
<glyph unicode="a" horiz-adv-x="2103" d="M123 0v254h258l635 1026h305l580 -1026h161v-254h-759v254h98l-45 88h-545l-51 -88h123v-254h-760zM950 575h285l-131 256z" />
<glyph unicode="b" horiz-adv-x="1884" d="M82 0v254h213v778h-213v236h987q109 0 187.5 -6.5t163.5 -27t138.5 -56t87 -99t33.5 -151.5q0 -117 -96 -201q219 -86 219 -334q0 -86 -30.5 -152.5t-90 -108.5t-128 -69.5t-165 -41t-177.5 -17.5t-187 -4h-942zM719 254h313q190 0 250.5 29.5t60.5 109.5q0 102 -63 130 t-272 28h-289v-297zM719 784h469q57 18 57 111q0 88 -47 112.5t-143 24.5h-336v-248z" />
<glyph unicode="c" horiz-adv-x="1933" d="M41 641q0 215 138 368.5t364.5 225.5t519.5 72q145 0 289.5 -44t242.5 -104v111h285v-608h-285v73q0 127 -157.5 217t-372.5 90q-244 0 -384 -99t-140 -302q0 -207 147.5 -312.5t374.5 -105.5q416 0 532 283h297q0 -84 -42 -171t-132 -170t-259 -135.5t-394 -52.5 q-1024 0 -1024 664z" />
<glyph unicode="d" horiz-adv-x="1957" d="M82 2v254h213v776h-213v236h917q264 0 456 -62.5t306.5 -205t114.5 -355.5q0 -322 -226.5 -482.5t-625.5 -160.5h-942zM719 256h313q221 0 303 90t82 299q0 203 -92 295t-317 92h-289v-776z" />
<glyph unicode="e" horiz-adv-x="1763" d="M82 0v254h213v778h-213v236h1599v-492h-282v256h-680v-264h467v-236h-467v-278h680v240h282v-494h-1599z" />
<glyph unicode="f" horiz-adv-x="1763" d="M82 0v254h213v778h-213v236h1599v-492h-282v256h-680v-264h467v-236h-467v-278h221v-254h-858z" />
<glyph unicode="g" horiz-adv-x="1953" d="M41 641q0 215 139 368.5t367.5 225.5t519.5 72q147 0 302 -44t251 -104v111h285v-608h-285v73q0 127 -157.5 217t-372.5 90q-248 0 -398.5 -101t-150.5 -300q0 -205 157.5 -311.5t388.5 -106.5q328 0 400 156h-262v235h688v-608h-240l-74 100q-195 -129 -530 -129 q-1028 0 -1028 664z" />
<glyph unicode="h" horiz-adv-x="2152" d="M82 0v254h213v778h-213v236h858v-236h-221v-264h706v264h-213v236h859v-236h-222v-778h222v-254h-859v254h213v278h-706v-278h221v-254h-858z" />
<glyph unicode="i" horiz-adv-x="1021" d="M82 0v254h213v778h-213v236h858v-236h-221v-778h221v-254h-858z" />
<glyph unicode="j" horiz-adv-x="1392" d="M66 463h374v-141q0 -119 103 -119q72 0 95.5 25.5t23.5 99.5v704h-261v236h908v-236h-222v-686q0 -193 -153.5 -290t-366.5 -97q-227 0 -363 127t-138 377z" />
<glyph unicode="k" horiz-adv-x="1873" d="M82 0v254h213v778h-213v236h809v-236h-172v-336l379 344v228h637v-236h-234l-407 -362l491 -416h248v-254h-530l-582 532v-278h170v-254h-809z" />
<glyph unicode="l" horiz-adv-x="1763" d="M82 0v254h213v778h-213v236h858v-236h-221v-778h680v240h282v-494h-1599z" />
<glyph unicode="m" horiz-adv-x="2535" d="M82 0v254h213v778h-213v236h573l602 -707l598 694h599v-223h-213v-778h213v-254h-859v254h222v414l-549 -666h-88l-559 668v-416h294v-254h-833z" />
<glyph unicode="n" horiz-adv-x="2054" d="M82 0v254h213v778h-213v236h620l723 -666v430h-213v236h760v-236h-221v-1032h-268l-862 774v-520h221v-254h-760z" />
<glyph unicode="o" horiz-adv-x="2127" d="M41 641q0 215 138 368.5t364.5 225.5t519.5 72t520 -72t365.5 -225.5t138.5 -368.5q0 -664 -1022 -664q-1024 0 -1024 664zM541 641q0 -207 147.5 -312.5t374.5 -105.5q248 0 387 103.5t139 314.5q0 193 -143 297t-381 104q-244 0 -384 -99t-140 -302z" />
<glyph unicode="p" horiz-adv-x="1761" d="M82 1032v236h987q109 0 187.5 -6.5t163.5 -27t138.5 -56t87 -99t33.5 -151.5q0 -100 -46 -173t-116.5 -113t-180 -63.5t-208 -30.5t-227.5 -7h-182v-287h229v-254h-858v254h205v778h-213zM719 756h190q152 0 221.5 13t92 40t22.5 86q0 88 -47 112.5t-143 24.5h-336v-276z " />
<glyph unicode="q" horiz-adv-x="2127" d="M41 641q0 215 138 368.5t364.5 225.5t519.5 72t520 -72t365.5 -225.5t138.5 -368.5q0 -340 -258 -502q6 -59 28.5 -93t77.5 -34q29 0 46.5 17.5t22.5 35t11 50.5q2 10 2 14v23h137v-136q0 -55 -35.5 -97t-92 -62.5t-110.5 -30.5t-106 -10q-82 0 -140 6t-116.5 24.5 t-97.5 56.5t-59 95q-143 -20 -332 -21q-242 0 -426 36t-320.5 114t-207 207t-70.5 307zM541 641q0 -90 30.5 -162.5t82 -120t120 -79t141 -44t152.5 -12.5q162 0 285 49q-27 51 -66 63.5t-125 12.5h-28h-29v125q156 16 221 16q29 0 71 -8t90 -20t70 -15q33 82 33 195 q0 193 -143 297t-381 104q-244 0 -384 -99t-140 -302z" />
<glyph unicode="r" horiz-adv-x="1890" d="M82 1032v236q166 0 494.5 1t492.5 1q307 0 458.5 -74t151.5 -268q0 -295 -393 -365q10 -4 46 -16t62.5 -24.5t58.5 -35t49.5 -59.5t17.5 -84q0 -57 4 -91t29.5 -65.5t74.5 -31.5q47 0 64.5 28.5t17.5 89.5v21h137v-135q0 -74 -63.5 -122t-136 -63.5t-144.5 -15.5 q-102 0 -170.5 10.5t-134 42t-97.5 98t-32 171.5q0 154 -60.5 207t-189.5 53h-100v-287h229v-254h-858v254h205v778h-213zM719 756h190q152 0 221.5 13t92 40t22.5 86q0 47 -13 74.5t-44 41t-56.5 16.5t-76.5 5q-49 2 -137 2l-199 -2v-276z" />
<glyph unicode="s" horiz-adv-x="1683" d="M82 -8v514h283v-74q0 -61 49 -104t130 -65.5t165 -32t174 -9.5q111 0 203 30t92 89q0 27 -9.5 45t-33 29.5t-49 18.5t-71.5 12.5t-88 8.5t-109.5 9t-125.5 14q-82 10 -157.5 30.5t-181 64.5t-170 127t-64.5 194q0 100 44 178t111.5 125t159.5 78t179 42t178 11 q137 0 286.5 -41t227.5 -96v100h282v-493h-282v73q0 90 -148.5 140.5t-316.5 50.5q-174 0 -237.5 -24.5t-63.5 -100.5q0 -16 11 -28.5t36.5 -20.5t46 -13.5t61.5 -11.5q57 -10 154.5 -20.5l174.5 -19.5t169 -26.5t159.5 -48t128 -77.5t91.5 -124t31 -177 q0 -195 -188.5 -304.5t-565.5 -109.5q-305 0 -483 92v-55h-283z" />
<glyph unicode="t" horiz-adv-x="1970" d="M82 776v492h1806v-492h-282v256h-410v-778h270v-254h-956v254h264v778h-409v-256h-283z" />
<glyph unicode="u" horiz-adv-x="2054" d="M82 1032v236h858v-236h-221v-581q0 -117 82 -170.5t264 -53.5h69q24 0 64.5 3t62 9.5l52 16.5t47 26.5t34 40t24.5 56.5t7 74v579h-213v236h760v-236h-221v-631q0 -61 -20.5 -119.5t-70.5 -118t-127 -104.5t-201 -72.5t-277 -27.5q-190 0 -342 42t-240 108.5t-133 142.5 t-45 149v631h-213z" />
<glyph unicode="v" horiz-adv-x="1980" d="M20 1030v236h760v-236h-96l342 -594l317 594h-143v236h760v-236h-244l-604 -1032h-264l-664 1032h-164z" />
<glyph unicode="w" horiz-adv-x="2938" d="M20 1030v236h760v-236h-100l324 -594l262 465l-76 129h-162v236h883v-236h-221l295 -588l294 588h-145v236h784v-236h-268l-577 -1032h-269l-374 631l-340 -631h-269l-639 1032h-162z" />
<glyph unicode="x" horiz-adv-x="2004" d="M20 0v236h252l455 382l-502 412h-170v236h736v-236h-56l293 -239l285 239h-103v236h736v-236h-254l-449 -366l569 -428h173v-236h-809v236h55l-299 243l-262 -243h110v-236h-760z" />
<glyph unicode="y" horiz-adv-x="1980" d="M20 1030v236h760v-236h-69l315 -313l295 313h-121v236h760v-236h-250l-512 -549v-227h221v-254h-858v254h213v205l-586 571h-168z" />
<glyph unicode="z" horiz-adv-x="1886" d="M82 0v233l1065 799h-727v-256h-283v492h1600v-213l-998 -801h783v240h282v-494h-1722z" />
<glyph unicode="{" horiz-adv-x="1120" d="M72 610v80q25 31 60.5 67t57 60.5t44 67.5t32.5 112.5t10 171.5q0 41 11.5 81t43 86t82 80t137.5 56.5t200 22.5q139 0 299 -22v-238q-29 0 -110 10t-122 10q-82 0 -130 -32.5t-48 -116.5q0 -57 -6 -107.5t-11.5 -84t-20.5 -67.5l-22 -50q-7 -16 -29 -40t-27 -29t-29 -26 l-25 -20v-80q14 -12 48 -36.5t40 -31t25.5 -31t21.5 -45t10.5 -63.5t9.5 -95t1 -134q2 -154 204 -154q51 0 128 10.5t92 10.5v-240q-195 -31 -283 -31q-238 0 -364 83t-126 214q0 106 -8 179t-30.5 127.5t-40 81t-60 78.5t-65.5 85z" />
<glyph unicode="|" horiz-adv-x="1079" d="M410 -205v1616h260v-1616h-260z" />
<glyph unicode="}" horiz-adv-x="1120" d="M72 33q14 0 91 -10.5t128 -10.5q205 0 205 154q0 72 2 121t4 87t10 64l13 44q5 17 21.5 35t25.5 25l36 27l43 33v80l-24 20q-25 20 -30 25.5l-26.5 29t-28.5 40.5l-23 50q-15 34 -20 67.5t-11.5 84t-6.5 107.5q0 84 -47 116.5t-129 32.5q-43 0 -124 -10t-109 -10v238 q160 23 299 22q135 0 233 -30.5t147.5 -82t71 -103.5t21.5 -108v-6q0 -127 20.5 -207.5t42 -110.5t69.5 -77t73 -80v-80q-23 -33 -66 -85t-60.5 -78.5t-40 -81t-30.5 -127t-8 -179.5q0 -131 -126 -214t-364 -83q-88 0 -282 31v240z" />
<glyph unicode="~" horiz-adv-x="1085" d="M86 901q45 49 119 84t147 35q61 0 134 -37l141 -73q68 -36 114 -36q51 0 75 1.5t41 6.5t22 9l20 20q16 16 31 29l71 -106q-104 -113 -272 -113q-63 0 -123.5 22.5t-100.5 50t-92.5 50t-101.5 22.5h-2q-29 0 -44 -1t-31.5 -10t-19.5 -11t-24 -24l-28 -29z" />
<glyph unicode="&#xa2;" horiz-adv-x="1521" d="M113 442q0 207 170 326t448 137v127h199v-133q160 -25 270 -94v78h199v-428h-199v53q0 90 -109.5 152.5t-261.5 62.5q-172 0 -269 -69.5t-97 -211.5q0 -145 103.5 -218.5t262.5 -73.5q291 0 371 198h209q0 -53 -24.5 -109.5t-77 -111.5t-150.5 -95t-227 -50v-199h-199 v197q-618 30 -618 462z" />
<glyph unicode="&#xa3;" d="M72 494v235h223q-31 78 -31 143q0 211 173 322t468 111q88 0 176 -14.5t178.5 -50.5t158 -88t110.5 -134t43 -184h-438v24q0 109 -59.5 147.5t-172.5 38.5q-106 0 -147 -36.5t-41 -141.5q0 -20 6 -42.5t17.5 -52.5t15.5 -42h448v-235h-444q-20 -96 -121 -164q4 0 59.5 5 t73.5 5q90 0 232.5 -37t166.5 -37q43 0 43 82q0 27 -4 86h385q0 -35 8.5 -99.5t8.5 -113.5q0 -113 -85 -176t-245 -63h-68q-57 6 -192 39.5t-213 33.5q-39 0 -79 -2t-70.5 -3t-73.5 -6t-66.5 -8t-72.5 -11l-65 -12l-70.5 -13t-67 -13l-75 -16.5t-71.5 -15.5v336l67 46 t66.5 47t49 47t38.5 63h-243z" />
<glyph unicode="&#xa5;" horiz-adv-x="1980" />
<glyph unicode="&#xa9;" horiz-adv-x="2129" d="M143 580q0 195 124 333t329 202.5t467 64.5q264 0 469 -64.5t330 -203t125 -332.5q0 -160 -63.5 -277t-186.5 -186.5t-289 -102t-383 -32.5t-383 32.5t-289 102t-186.5 186.5t-63.5 277zM514 582q0 -147 77 -249t197.5 -147t274.5 -45q260 0 406.5 109.5t146.5 331.5 q0 203 -150.5 311t-400.5 108q-256 0 -403.5 -104t-147.5 -315zM698 580q0 88 58.5 149.5t142.5 89t182 27.5q145 0 240 -58v43h113v-243h-113v30q0 51 -68.5 88t-152.5 37t-142.5 -40.5t-58.5 -122.5t59.5 -124t149.5 -42q166 0 213 112h119q0 -78 -80 -144.5t-252 -66.5 q-410 1 -410 265z" />
<glyph unicode="&#xad;" horiz-adv-x="1226" d="M340 567v166h549v-166h-549z" />
<glyph unicode="&#xae;" horiz-adv-x="2129" d="M143 580q0 289 257 444.5t662.5 155.5t665 -156t259.5 -444q0 -598 -922 -598t-922 598zM514 582q0 -219 154.5 -330t394.5 -111q260 0 406.5 109.5t146.5 331.5q0 203 -150.5 311t-400.5 108q-256 0 -403.5 -104t-147.5 -315zM735 782v95h535q104 -29 104 -138 q0 -119 -157 -145l22 -8q23 -8 34 -14.5t23.5 -25t12.5 -40.5q0 -76 45 -76q33 0 32 57h54v-55q0 -43 -44 -61.5t-93 -18.5q-86 0 -126 23.5t-44.5 58.5t-4.5 69t-20.5 57.5t-77.5 23.5h-41v-113h92v-102h-344v102h82v311h-84zM989 672h76q88 0 111.5 10t23.5 45t-18.5 45 t-59.5 10h-133v-110z" />
<glyph unicode="&#xb4;" horiz-adv-x="471" d="M41 1532l367 143l22 -198l-342 -101z" />
<glyph unicode="&#x2000;" horiz-adv-x="837" />
<glyph unicode="&#x2001;" horiz-adv-x="1675" />
<glyph unicode="&#x2002;" horiz-adv-x="837" />
<glyph unicode="&#x2003;" horiz-adv-x="1675" />
<glyph unicode="&#x2004;" horiz-adv-x="557" />
<glyph unicode="&#x2005;" horiz-adv-x="417" />
<glyph unicode="&#x2006;" horiz-adv-x="278" />
<glyph unicode="&#x2007;" horiz-adv-x="278" />
<glyph unicode="&#x2008;" horiz-adv-x="208" />
<glyph unicode="&#x2009;" horiz-adv-x="333" />
<glyph unicode="&#x200a;" horiz-adv-x="92" />
<glyph unicode="&#x2010;" horiz-adv-x="1226" d="M340 567v166h549v-166h-549z" />
<glyph unicode="&#x2011;" horiz-adv-x="1226" d="M340 567v166h549v-166h-549z" />
<glyph unicode="&#x2012;" horiz-adv-x="1226" d="M340 567v166h549v-166h-549z" />
<glyph unicode="&#x2013;" horiz-adv-x="1024" d="M53 567v166h918v-166h-918z" />
<glyph unicode="&#x2014;" horiz-adv-x="2048" d="M12 567v166h2024v-166h-2024z" />
<glyph unicode="&#x2018;" horiz-adv-x="858" d="M129 1012q0 117 59 200q43 61 104.5 103.5t184.5 105.5l148 -137l-71 -33q-44 -20 -58 -28q100 -14 166.5 -71.5t66.5 -139.5q0 -94 -85 -161t-202 -67q-119 0 -217 67t-96 161z" />
<glyph unicode="&#x2019;" horiz-adv-x="858" d="M129 1184q0 94 86 160.5t203 66.5t215 -66.5t96 -160.5q0 -117 -59 -201q-43 -61 -104.5 -103t-184.5 -106l-148 137l71 33q44 20 58 29q-98 14 -165.5 71.5t-67.5 139.5z" />
<glyph unicode="&#x201c;" horiz-adv-x="1515" d="M127 1012q0 117 59 200q43 61 104.5 103.5t184.5 105.5l148 -137l-71 -33q-44 -20 -58 -28q100 -14 166.5 -71.5t66.5 -139.5q0 -94 -85 -161t-202 -67q-119 0 -217 67t-96 161zM791 1012q0 117 59 200q43 61 104.5 103.5t184.5 105.5l147 -137l-71 -33q-44 -20 -58 -28 q100 -14 167 -71.5t67 -139.5q0 -94 -85 -161t-202 -67q-119 0 -217 67t-96 161z" />
<glyph unicode="&#x201d;" horiz-adv-x="1515" d="M125 1184q0 94 86 160.5t202.5 66.5t215 -66.5t96.5 -160.5q0 -117 -59 -201q-43 -61 -104.5 -103t-184.5 -106l-148 137l71 33q44 20 58 29q-98 14 -165.5 71.5t-67.5 139.5zM788 1184q0 94 86.5 160.5t203 66.5t215 -66.5t96.5 -160.5q0 -117 -60 -201 q-43 -61 -104.5 -103t-184.5 -106l-147 137l71 33q44 20 58 29q-98 14 -166 71.5t-68 139.5z" />
<glyph unicode="&#x2022;" horiz-adv-x="847" d="M137 772v72q193 45 244 178h90q18 -76 74.5 -113t165.5 -55v-74q-193 -45 -244 -178h-90q-18 76 -74.5 114t-165.5 56z" />
<glyph unicode="&#x2026;" horiz-adv-x="2170" d="M123 172q0 90 85 152.5t204 62.5q117 0 201.5 -62.5t84.5 -152.5q0 -88 -85 -145.5t-201.5 -57.5t-202.5 57.5t-86 145.5zM797 172q0 90 85 152.5t201.5 62.5t202.5 -62.5t86 -152.5q0 -88 -86 -145.5t-202.5 -57.5t-201.5 57.5t-85 145.5zM1473 172q0 90 84.5 152.5 t201.5 62.5q119 0 204 -62.5t85 -152.5q0 -88 -86 -145.5t-203 -57.5t-201.5 57.5t-84.5 145.5z" />
<glyph unicode="&#x202f;" horiz-adv-x="333" />
<glyph unicode="&#x205f;" horiz-adv-x="417" />
<glyph unicode="&#x2122;" horiz-adv-x="1904" d="M102 1092v196h723v-196h-112v102h-164v-311h108v-103h-383v103h105v311h-164v-102h-113zM854 780v103h84v311h-84v94h211l258 -282l242 280l237 2v-94h-86v-311h86v-103h-344v103h90v166l-221 -267h-35l-223 267v-166h119v-103h-334z" />
<glyph unicode="&#xe000;" horiz-adv-x="1265" d="M0 1265h1265v-1265h-1265v1265z" />
<glyph unicode="&#xfb01;" horiz-adv-x="2783" d="M82 0v254h213v778h-213v236h1599v-492h-282v256h-680v-264h467v-236h-467v-278h221v-254h-858zM1843 0v254h213v778h-213v236h858v-236h-221v-778h221v-254h-858z" />
<glyph unicode="&#xfb02;" horiz-adv-x="3524" d="M82 0v254h213v778h-213v236h1599v-492h-282v256h-680v-264h467v-236h-467v-278h221v-254h-858zM1843 0v254h213v778h-213v236h858v-236h-221v-778h680v240h283v-494h-1600z" />
<glyph unicode="&#xfb03;" horiz-adv-x="4548" d="M3609 0v254h213v778h-213v236h858v-236h-221v-778h221v-254h-858zM1845 0v254h213v778h-213v236h1599v-492h-282v256h-680v-264h467v-236h-467v-278h221v-254h-858zM82 0v254h213v778h-213v236h1599v-492h-282v256h-680v-264h467v-236h-467v-278h221v-254h-858z" />
<glyph unicode="&#xfb04;" horiz-adv-x="5289" d="M3609 0v254h213v778h-213v236h858v-236h-221v-778h680v240h282v-494h-1599zM1845 0v254h213v778h-213v236h1599v-492h-282v256h-680v-264h467v-236h-467v-278h221v-254h-858zM82 0v254h213v778h-213v236h1599v-492h-282v256h-680v-264h467v-236h-467v-278h221v-254h-858z " />
</font>
</defs>
</svg>
